<?xml version="1.0" encoding="utf-8"?>
<!-- Generator: Adobe Illustrator 22.0.1, SVG Export Plug-In . SVG Version: 6.00 Build 0)  -->
<svg version="1.1" xmlns="http://www.w3.org/2000/svg" xmlns:xlink="http://www.w3.org/1999/xlink" x="0px" y="0px"
	 viewBox="0 0 2244 772" style="enable-background:new 0 0 2244 772;" xml:space="preserve">
<style type="text/css">
	.st0{fill:#0F0F0F;}
	.st1{fill:#EE2B72;}
</style>
<g id="_1">
</g>
<g id="Layer_1_1_">
	<rect x="-18.3" y="-212.9" class="st0" width="2298.2" height="1597.9"/>
	
		<rect x="119.8" y="-86.6" transform="matrix(6.123234e-17 -1 1 6.123234e-17 332.7614 439.5149)" class="st1" width="532.6" height="280"/>
	<polygon class="st1" points="526.1,319.7 526.1,-212.9 246.1,53.4 	"/>
	<g>
		<g>
			<g>
				<ellipse class="st1" cx="2174" cy="-123.9" rx="27.8" ry="26.5"/>
			</g>
			<g>
				<ellipse class="st1" cx="2174" cy="-5.7" rx="27.8" ry="26.5"/>
			</g>
			<g>
				<ellipse class="st1" cx="2174" cy="112.5" rx="27.8" ry="26.5"/>
			</g>
			<g>
				<ellipse class="st1" cx="2174" cy="230.6" rx="27.8" ry="26.5"/>
			</g>
			<g>
				<ellipse class="st1" cx="2049.7" cy="-123.9" rx="27.8" ry="26.5"/>
			</g>
			<g>
				<ellipse class="st1" cx="1925.5" cy="-123.9" rx="27.8" ry="26.5"/>
			</g>
			<g>
				<ellipse class="st1" cx="1801.3" cy="-123.9" rx="27.8" ry="26.5"/>
			</g>
			<g>
				<ellipse class="st1" cx="2049.7" cy="-5.7" rx="27.8" ry="26.5"/>
			</g>
			<g>
				<ellipse class="st1" cx="1925.5" cy="-5.7" rx="27.8" ry="26.5"/>
			</g>
			<g>
				<ellipse class="st1" cx="1801.3" cy="-5.7" rx="27.8" ry="26.5"/>
			</g>
			<g>
				<ellipse class="st1" cx="2049.7" cy="112.5" rx="27.8" ry="26.5"/>
			</g>
			<g>
				<ellipse class="st1" cx="1925.5" cy="112.5" rx="27.8" ry="26.5"/>
			</g>
			<g>
				<ellipse class="st1" cx="1801.3" cy="112.5" rx="27.8" ry="26.5"/>
			</g>
			<g>
				<ellipse class="st1" cx="2049.7" cy="230.6" rx="27.8" ry="26.5"/>
			</g>
			<g>
				<ellipse class="st1" cx="1925.5" cy="230.6" rx="27.8" ry="26.5"/>
			</g>
			<g>
				<ellipse class="st1" cx="1677.1" cy="-123.9" rx="27.8" ry="26.5"/>
			</g>
			<g>
				<ellipse class="st1" cx="1677.1" cy="-5.7" rx="27.8" ry="26.5"/>
			</g>
			<g>
				<ellipse class="st1" cx="1677.1" cy="112.5" rx="27.8" ry="26.5"/>
			</g>
			<g>
				<ellipse class="st1" cx="1677.1" cy="230.6" rx="27.8" ry="26.5"/>
			</g>
			<g>
				<ellipse class="st1" cx="1801.3" cy="230.6" rx="27.8" ry="26.5"/>
			</g>
		</g>
	</g>
	<g>
		<g>
			<path class="st1" d="M1646,586c0-147.1-125.4-266.3-280-266.3v532.6C1520.7,852.3,1646,733.1,1646,586z"/>
		</g>
	</g>
	<g>
		<g>
			<path class="st1" d="M1646,586c0-147.1,125.4-266.3,280-266.3v532.6C1771.4,852.3,1646,733.1,1646,586z"/>
		</g>
	</g>
	<g>
		<polygon class="st1" points="1848.1,910.9 1848.1,1099.2 1749.1,1005.1 		"/>
		<polygon class="st1" points="1699.3,910.9 1699.3,1099.2 1600.3,1005.1 		"/>
		<polygon class="st1" points="1550.4,910.9 1550.4,1099.2 1451.4,1005.1 		"/>
		<polygon class="st1" points="1848.1,1326.4 1848.1,1138 1749.1,1232.2 		"/>
		<polygon class="st1" points="1699.3,1326.4 1699.3,1138 1600.3,1232.2 		"/>
		<polygon class="st1" points="1550.4,1326.4 1550.4,1138 1451.4,1232.2 		"/>
	</g>
	
		<rect x="529.5" y="449.4" transform="matrix(6.123234e-17 -1 1 6.123234e-17 76.6991 1115.5463)" class="st1" width="133.2" height="140"/>
	
		<rect x="669.5" y="316.3" transform="matrix(6.123234e-17 -1 1 6.123234e-17 349.8458 1122.3799)" class="st1" width="133.2" height="140"/>
	<g>
		<g>
			<g>
				<ellipse class="st1" cx="526.1" cy="1118.6" rx="41.5" ry="39.5"/>
			</g>
			<g>
				<ellipse class="st1" cx="526.1" cy="970.1" rx="41.5" ry="39.5"/>
			</g>
			<g>
				<ellipse class="st1" cx="682.3" cy="1118.6" rx="41.5" ry="39.5"/>
			</g>
			<g>
				<ellipse class="st1" cx="526.1" cy="1267.1" rx="41.5" ry="39.5"/>
			</g>
			<g>
				<ellipse class="st1" cx="370" cy="1118.6" rx="41.5" ry="39.5"/>
			</g>
			<g>
				<ellipse class="st1" cx="682.3" cy="970.1" rx="41.5" ry="39.5"/>
			</g>
			<g>
				<ellipse class="st1" cx="370" cy="970.1" rx="41.5" ry="39.5"/>
			</g>
			<g>
				<ellipse class="st1" cx="682.3" cy="1267.1" rx="41.5" ry="39.5"/>
			</g>
			<g>
				<ellipse class="st1" cx="370" cy="1267.1" rx="41.5" ry="39.5"/>
			</g>
		</g>
	</g>
	<polygon class="st1" points="1366.1,319.7 806.1,852.3 806.1,319.7 	"/>
	<ellipse class="st1" cx="65.6" cy="53.4" rx="41.5" ry="39.5"/>
	<ellipse class="st1" cx="65.6" cy="-95.1" rx="41.5" ry="39.5"/>
	<path class="st1" d="M107.1,201.9c0-21.8-18.6-39.5-41.5-39.5c-22.9,0-41.5,17.7-41.5,39.5c0,21.8,18.6,39.5,41.5,39.5
		C88.5,241.4,107.1,223.7,107.1,201.9z"/>
	
		<rect x="1833.7" y="944.6" transform="matrix(-1.836970e-16 1 -1 -1.836970e-16 3218.6394 -981.3865)" class="st1" width="532.6" height="348"/>
	
		<rect x="1071.9" y="1090.8" transform="matrix(-1.836970e-16 1 -1 -1.836970e-16 2456.8694 -219.6166)" class="st1" width="532.6" height="55.6"/>
	
		<rect x="945.9" y="1090.8" transform="matrix(-1.836970e-16 1 -1 -1.836970e-16 2330.7917 -93.5389)" class="st1" width="532.6" height="55.6"/>
	
		<rect x="819.8" y="1090.8" transform="matrix(-1.836970e-16 1 -1 -1.836970e-16 2204.7139 32.5389)" class="st1" width="532.6" height="55.6"/>
	
		<rect x="693.7" y="1090.8" transform="matrix(-1.836970e-16 1 -1 -1.836970e-16 2078.6362 158.6167)" class="st1" width="532.6" height="55.6"/>
	
		<rect x="567.6" y="1090.8" transform="matrix(-1.836970e-16 1 -1 -1.836970e-16 1952.5585 284.6944)" class="st1" width="532.6" height="55.6"/>
</g>
</svg>
