<?xml version="1.0" encoding="utf-8"?>
<!-- Generator: Adobe Illustrator 22.0.1, SVG Export Plug-In . SVG Version: 6.00 Build 0)  -->
<svg version="1.1" xmlns="http://www.w3.org/2000/svg" xmlns:xlink="http://www.w3.org/1999/xlink" x="0px" y="0px"
	 viewBox="0 0 2244 772" style="enable-background:new 0 0 2244 772;" xml:space="preserve">
<style type="text/css">
	.st0{fill:#0F0F0F;}
	.st1{fill:#FABD2B;}
	.st2{fill:#E21B4E;}
	.st3{fill:#35BEB9;}
</style>
<g id="_1">
</g>
<g id="Layer_1_1_">
	<g>
		<rect x="-5.9" y="-272.9" class="st0" width="2255.8" height="1597.9"/>
		
			<rect x="89.8" y="-146.6" transform="matrix(6.123234e-17 -1 1 6.123234e-17 362.7616 349.5142)" class="st1" width="532.6" height="280"/>
		<polygon class="st2" points="496.1,259.7 496.1,-272.9 216.1,-6.6 		"/>
		<g>
			<g>
				<g>
					<ellipse class="st2" cx="2194" cy="52.5" rx="27.8" ry="26.5"/>
				</g>
				<g>
					<ellipse class="st2" cx="2194" cy="170.6" rx="27.8" ry="26.5"/>
				</g>
				<g>
					<ellipse class="st2" cx="2069.7" cy="52.5" rx="27.8" ry="26.5"/>
				</g>
				<g>
					<ellipse class="st2" cx="1945.5" cy="52.5" rx="27.8" ry="26.5"/>
				</g>
				<g>
					<ellipse class="st2" cx="1821.3" cy="52.5" rx="27.8" ry="26.5"/>
				</g>
				<g>
					<ellipse class="st2" cx="2069.7" cy="170.6" rx="27.8" ry="26.5"/>
				</g>
				<g>
					<ellipse class="st2" cx="1945.5" cy="170.6" rx="27.8" ry="26.5"/>
				</g>
				<g>
					<ellipse class="st2" cx="1697.1" cy="52.5" rx="27.8" ry="26.5"/>
				</g>
				<g>
					<ellipse class="st2" cx="1697.1" cy="170.6" rx="27.8" ry="26.5"/>
				</g>
				<g>
					<ellipse class="st2" cx="1821.3" cy="170.6" rx="27.8" ry="26.5"/>
				</g>
			</g>
		</g>
		<g>
			<g>
				<path class="st3" d="M1616,526c0-147.1-125.4-266.3-280-266.3v532.6C1490.7,792.3,1616,673.1,1616,526z"/>
			</g>
		</g>
		<g>
			<g>
				<path class="st2" d="M1616,526c0-147.1,125.4-266.3,280-266.3v532.6C1741.4,792.3,1616,673.1,1616,526z"/>
			</g>
		</g>
		
			<rect x="499.5" y="389.4" transform="matrix(6.123234e-17 -1 1 6.123234e-17 106.6993 1025.5455)" class="st3" width="133.2" height="140"/>
		
			<rect x="639.5" y="256.3" transform="matrix(6.123234e-17 -1 1 6.123234e-17 379.8461 1032.3792)" class="st3" width="133.2" height="140"/>
		<polygon class="st1" points="1336.1,259.7 776.1,792.3 776.1,259.7 		"/>
		<ellipse class="st3" cx="35.6" cy="-6.6" rx="41.5" ry="39.5"/>
		<path class="st3" d="M77.1,141.9c0-21.8-18.6-39.5-41.5-39.5c-22.9,0-41.5,17.7-41.5,39.5c0,21.8,18.6,39.5,41.5,39.5
			C58.5,181.4,77.1,163.7,77.1,141.9z"/>
	</g>
</g>
</svg>
